<?xml version="1.0" encoding="UTF-8"?>
<svg id="Warstwa_1" xmlns="http://www.w3.org/2000/svg" version="1.1" viewBox="0 0 27 33">
  <!-- Generator: Adobe Illustrator 29.2.1, SVG Export Plug-In . SVG Version: 2.1.0 Build 116)  -->
  <defs>
    <style>
      .st0 {
        fill: #fff;
      }

      .st1 {
        fill-rule: evenodd;
      }
    </style>
  </defs>
  <g>
    <path class="st0" d="M4.3,22.6C-.7,17.6-.7,9.5,4.3,4.6,6.8,2.2,10,.8,13.5.8s6.7,1.3,9.2,3.7c5.1,5,5.1,13.1,0,18l-9.2,9-9.2-9h0Z"/>
    <path d="M13.5,1.1c3.4,0,6.6,1.3,9.1,3.7,2.4,2.4,3.8,5.5,3.8,8.9s-1.3,6.5-3.8,8.9l-9.1,8.9-9.1-8.9c-2.4-2.4-3.8-5.5-3.8-8.9s1.3-6.5,3.8-8.9c2.4-2.4,5.6-3.7,9.1-3.7M13.5.6c-3.4,0-6.7,1.3-9.4,3.8-5.2,5.1-5.2,13.3,0,18.3l9.4,9.2,9.4-9.2c5.2-5.1,5.2-13.3,0-18.3-2.5-2.5-5.9-3.8-9.4-3.8h0Z"/>
  </g>
  <path class="st1" d="M18.7,10.6l-1.3,2.1h-6.5c-1.4,0-2.9.3-3.5,1.5l-.7,1.1-1.6,2.6h9.4c1.4,0,2.9-.3,3.5-1.5l.7-1.1c.9-1.6,1.9-3.1,2.8-4.7h-2.9,0ZM16.8,13.8l-1.4,2.3c-.3.5-1,.7-1.6.7h-5.2l1.4-2.3c.3-.5,1-.7,1.6-.7,0,0,5.2,0,5.2,0Z"/>
</svg>