<svg width="153" height="14" viewBox="0 0 153 14" fill="none" xmlns="http://www.w3.org/2000/svg">
<path fill-rule="evenodd" clip-rule="evenodd" d="M23.5813 3.98906L25.9696 0H25.9717L31.4224 0.00856022V0.0128403L30.5222 1.51605C29.0273 4.0126 27.5331 6.5079 26.0359 9.00321L24.7347 11.1775C23.4443 13.3368 20.6151 13.996 17.9936 13.996H14.1672H0L3.0025 8.98181L4.30365 6.80751C5.5941 4.6482 8.42325 3.98906 11.0448 3.98906H14.1672H23.5813ZM19.6971 10.4627L22.3208 6.08845H12.4958C11.3573 6.08845 9.91487 6.5507 9.35632 7.49661L6.73261 11.8709H16.5576C17.6982 11.8709 19.1385 11.4086 19.6971 10.4627ZM146.153 13.9981H123.644V13.996C125.08 11.5991 126.522 9.18941 127.956 6.79255C129.246 4.63324 132.075 3.9741 134.697 3.9741C137.505 3.9741 140.457 3.97731 143.41 3.98052L143.41 3.98052C146.367 3.98373 149.325 3.98694 152.143 3.98694L150.298 7.06862C149.008 9.22794 146.178 9.88707 143.557 9.88707H131.566L131.506 9.98765L130.798 11.169C130.533 11.6098 130.378 11.873 132.08 11.873H147.424L146.153 13.9981ZM132.612 8.14079L132.61 8.14293V8.14079L132.612 8.14079ZM142.108 8.13651L132.612 8.14079L132.827 7.78982C133.507 6.65773 134.573 6.09062 136.127 6.08848H145.419L145.205 6.43731C144.509 7.56939 143.482 8.13651 142.108 8.13651ZM31.2407 3.98906L25.2485 13.9981H30.7078L36.6978 3.98906H31.2407ZM38.1615 3.98906H43.4774L45.0631 11.4685L56.1229 3.98906H61.8048L47.0085 13.9981H40.2865L38.1615 3.98906ZM103.454 3.98906H91.4765C88.8549 3.98906 86.0257 4.6482 84.7353 6.80751L80.4316 13.9981H85.8909L89.7879 7.49875C90.3465 6.55285 91.7868 6.09059 92.9274 6.09059H102.196L103.454 3.98906ZM111.079 13.999H111.08C113.018 13.9986 114.934 13.9981 116.787 13.9981C119.409 13.9981 122.238 13.339 123.528 11.1797L125.347 8.14292H108.297L108.509 7.78981C109.196 6.69197 110.179 6.09061 111.848 6.08847H126.576L127.834 3.98694H110.382C107.76 3.98694 104.931 4.64607 103.641 6.80539L101.796 9.88707H118.846L118.634 10.2423C117.953 11.3166 116.962 11.8709 115.36 11.873H100.608L99.337 13.9981H99.3349C103.104 14.001 107.137 14 111.079 13.999ZM78.4887 13.9981H55.9796V13.996C57.4156 11.5991 58.8579 9.18941 60.2918 6.79255C61.5822 4.63324 64.4114 3.9741 67.033 3.9741C69.8412 3.9741 72.7928 3.97731 75.7459 3.98052C78.7025 3.98373 81.6608 3.98694 84.4787 3.98694L82.6339 7.06862C81.3435 9.22794 78.5143 9.88707 75.8928 9.88707H63.9021L63.8421 9.98765L63.1359 11.169L63.1263 11.1849C62.8665 11.6162 62.7117 11.873 64.4157 11.873H79.7599L78.4887 13.9981ZM64.9477 8.14079L64.9464 8.14293V8.14079L64.9477 8.14079ZM64.9477 8.14079L74.444 8.13651C75.8179 8.13651 76.8451 7.56939 77.5406 6.43731L77.7546 6.08848H68.4625C66.9088 6.09062 65.8431 6.65773 65.1625 7.78982L64.9477 8.14079Z" fill="white"/>
</svg>
